<?xml version="1.0" encoding="UTF-8"?>
<svg xmlns="http://www.w3.org/2000/svg" width="4596.0" height="252.0" viewBox="0 0 4596.0 252.0">
<rect x="0" y="0" width="4596.0" height="252.0" fill="#0f1318" />
<text x="2298.0" y="28" text-anchor="middle" font-family="monospace" font-size="16" fill="#e0e0e0">Prefold SVG — col-major, strategy=log, max=70.0°</text>
<rect x="40.0" y="60.0" width="4536.0" height="72.0" fill="none" stroke="#555" stroke-width="1" />
<rect x="40.0" y="60.0" width="56.0" height="72.0" fill="#aab7b8" fill-opacity="0.25" />
<text x="68.0" y="101.0" text-anchor="middle" font-family="monospace" font-size="14" fill="#f0f0f0">5</text>
<text x="68.0" y="76.0" text-anchor="middle" font-family="monospace" font-size="11" fill="#aaa">—</text>
<text x="68.0" y="146.0" text-anchor="middle" font-family="monospace" font-size="9" fill="#888">+0.0°</text>
<line x1="96.0" y1="60.0" x2="96.0" y2="132.0" stroke="#aab7b8" stroke-width="2" stroke-dasharray="1,3" />
<rect x="96.0" y="60.0" width="56.0" height="72.0" fill="#f0b27a" fill-opacity="0.25" />
<text x="124.0" y="101.0" text-anchor="middle" font-family="monospace" font-size="14" fill="#f0f0f0">6</text>
<text x="124.0" y="76.0" text-anchor="middle" font-family="monospace" font-size="11" fill="#e74c3c">△</text>
<text x="124.0" y="146.0" text-anchor="middle" font-family="monospace" font-size="9" fill="#888">+17.5°</text>
<line x1="152.0" y1="60.0" x2="152.0" y2="132.0" stroke="#f0b27a" stroke-width="2" />
<rect x="152.0" y="60.0" width="56.0" height="72.0" fill="#1a5276" fill-opacity="0.25" />
<text x="180.0" y="101.0" text-anchor="middle" font-family="monospace" font-size="14" fill="#f0f0f0">1</text>
<text x="180.0" y="76.0" text-anchor="middle" font-family="monospace" font-size="11" fill="#3498db">▽</text>
<text x="180.0" y="146.0" text-anchor="middle" font-family="monospace" font-size="9" fill="#888">-70.0°</text>
<line x1="208.0" y1="60.0" x2="208.0" y2="132.0" stroke="#1a5276" stroke-width="2" stroke-dasharray="4,3" />
<rect x="208.0" y="60.0" width="56.0" height="72.0" fill="#cb4335" fill-opacity="0.25" />
<text x="236.0" y="101.0" text-anchor="middle" font-family="monospace" font-size="14" fill="#f0f0f0">8</text>
<text x="236.0" y="76.0" text-anchor="middle" font-family="monospace" font-size="11" fill="#e74c3c">△</text>
<text x="236.0" y="146.0" text-anchor="middle" font-family="monospace" font-size="9" fill="#888">+52.5°</text>
<line x1="264.0" y1="60.0" x2="264.0" y2="132.0" stroke="#cb4335" stroke-width="2" />
<rect x="264.0" y="60.0" width="56.0" height="72.0" fill="#85c1e9" fill-opacity="0.25" />
<text x="292.0" y="101.0" text-anchor="middle" font-family="monospace" font-size="14" fill="#f0f0f0">4</text>
<text x="292.0" y="76.0" text-anchor="middle" font-family="monospace" font-size="11" fill="#3498db">▽</text>
<text x="292.0" y="146.0" text-anchor="middle" font-family="monospace" font-size="9" fill="#888">-17.5°</text>
<line x1="320.0" y1="60.0" x2="320.0" y2="132.0" stroke="#85c1e9" stroke-width="2" stroke-dasharray="4,3" />
<rect x="320.0" y="60.0" width="56.0" height="72.0" fill="#e67e22" fill-opacity="0.25" />
<text x="348.0" y="101.0" text-anchor="middle" font-family="monospace" font-size="14" fill="#f0f0f0">7</text>
<text x="348.0" y="76.0" text-anchor="middle" font-family="monospace" font-size="11" fill="#e74c3c">△</text>
<text x="348.0" y="146.0" text-anchor="middle" font-family="monospace" font-size="9" fill="#888">+35.0°</text>
<line x1="376.0" y1="60.0" x2="376.0" y2="132.0" stroke="#e67e22" stroke-width="2" />
<rect x="376.0" y="60.0" width="56.0" height="72.0" fill="#922b21" fill-opacity="0.25" />
<text x="404.0" y="101.0" text-anchor="middle" font-family="monospace" font-size="14" fill="#f0f0f0">9</text>
<text x="404.0" y="76.0" text-anchor="middle" font-family="monospace" font-size="11" fill="#e74c3c">△</text>
<text x="404.0" y="146.0" text-anchor="middle" font-family="monospace" font-size="9" fill="#888">+70.0°</text>
<line x1="432.0" y1="60.0" x2="432.0" y2="132.0" stroke="#922b21" stroke-width="2" />
<rect x="432.0" y="60.0" width="56.0" height="72.0" fill="#2980b9" fill-opacity="0.25" />
<text x="460.0" y="101.0" text-anchor="middle" font-family="monospace" font-size="14" fill="#f0f0f0">2</text>
<text x="460.0" y="76.0" text-anchor="middle" font-family="monospace" font-size="11" fill="#3498db">▽</text>
<text x="460.0" y="146.0" text-anchor="middle" font-family="monospace" font-size="9" fill="#888">-52.5°</text>
<line x1="488.0" y1="60.0" x2="488.0" y2="132.0" stroke="#2980b9" stroke-width="2" stroke-dasharray="4,3" />
<rect x="488.0" y="60.0" width="56.0" height="72.0" fill="#5dade2" fill-opacity="0.25" />
<text x="516.0" y="101.0" text-anchor="middle" font-family="monospace" font-size="14" fill="#f0f0f0">3</text>
<text x="516.0" y="76.0" text-anchor="middle" font-family="monospace" font-size="11" fill="#3498db">▽</text>
<text x="516.0" y="146.0" text-anchor="middle" font-family="monospace" font-size="9" fill="#888">-35.0°</text>
<line x1="544.0" y1="60.0" x2="544.0" y2="132.0" stroke="#5dade2" stroke-width="2" stroke-dasharray="4,3" />
<rect x="544.0" y="60.0" width="56.0" height="72.0" fill="#5dade2" fill-opacity="0.25" />
<text x="572.0" y="101.0" text-anchor="middle" font-family="monospace" font-size="14" fill="#f0f0f0">3</text>
<text x="572.0" y="76.0" text-anchor="middle" font-family="monospace" font-size="11" fill="#3498db">▽</text>
<text x="572.0" y="146.0" text-anchor="middle" font-family="monospace" font-size="9" fill="#888">-35.0°</text>
<line x1="600.0" y1="60.0" x2="600.0" y2="132.0" stroke="#5dade2" stroke-width="2" stroke-dasharray="4,3" />
<rect x="600.0" y="60.0" width="56.0" height="72.0" fill="#e67e22" fill-opacity="0.25" />
<text x="628.0" y="101.0" text-anchor="middle" font-family="monospace" font-size="14" fill="#f0f0f0">7</text>
<text x="628.0" y="76.0" text-anchor="middle" font-family="monospace" font-size="11" fill="#e74c3c">△</text>
<text x="628.0" y="146.0" text-anchor="middle" font-family="monospace" font-size="9" fill="#888">+35.0°</text>
<line x1="656.0" y1="60.0" x2="656.0" y2="132.0" stroke="#e67e22" stroke-width="2" />
<rect x="656.0" y="60.0" width="56.0" height="72.0" fill="#922b21" fill-opacity="0.25" />
<text x="684.0" y="101.0" text-anchor="middle" font-family="monospace" font-size="14" fill="#f0f0f0">9</text>
<text x="684.0" y="76.0" text-anchor="middle" font-family="monospace" font-size="11" fill="#e74c3c">△</text>
<text x="684.0" y="146.0" text-anchor="middle" font-family="monospace" font-size="9" fill="#888">+70.0°</text>
<line x1="712.0" y1="60.0" x2="712.0" y2="132.0" stroke="#922b21" stroke-width="2" />
<rect x="712.0" y="60.0" width="56.0" height="72.0" fill="#aab7b8" fill-opacity="0.25" />
<text x="740.0" y="101.0" text-anchor="middle" font-family="monospace" font-size="14" fill="#f0f0f0">5</text>
<text x="740.0" y="76.0" text-anchor="middle" font-family="monospace" font-size="11" fill="#aaa">—</text>
<text x="740.0" y="146.0" text-anchor="middle" font-family="monospace" font-size="9" fill="#888">+0.0°</text>
<line x1="768.0" y1="60.0" x2="768.0" y2="132.0" stroke="#aab7b8" stroke-width="2" stroke-dasharray="1,3" />
<rect x="768.0" y="60.0" width="56.0" height="72.0" fill="#2980b9" fill-opacity="0.25" />
<text x="796.0" y="101.0" text-anchor="middle" font-family="monospace" font-size="14" fill="#f0f0f0">2</text>
<text x="796.0" y="76.0" text-anchor="middle" font-family="monospace" font-size="11" fill="#3498db">▽</text>
<text x="796.0" y="146.0" text-anchor="middle" font-family="monospace" font-size="9" fill="#888">-52.5°</text>
<line x1="824.0" y1="60.0" x2="824.0" y2="132.0" stroke="#2980b9" stroke-width="2" stroke-dasharray="4,3" />
<rect x="824.0" y="60.0" width="56.0" height="72.0" fill="#1a5276" fill-opacity="0.25" />
<text x="852.0" y="101.0" text-anchor="middle" font-family="monospace" font-size="14" fill="#f0f0f0">1</text>
<text x="852.0" y="76.0" text-anchor="middle" font-family="monospace" font-size="11" fill="#3498db">▽</text>
<text x="852.0" y="146.0" text-anchor="middle" font-family="monospace" font-size="9" fill="#888">-70.0°</text>
<line x1="880.0" y1="60.0" x2="880.0" y2="132.0" stroke="#1a5276" stroke-width="2" stroke-dasharray="4,3" />
<rect x="880.0" y="60.0" width="56.0" height="72.0" fill="#f0b27a" fill-opacity="0.25" />
<text x="908.0" y="101.0" text-anchor="middle" font-family="monospace" font-size="14" fill="#f0f0f0">6</text>
<text x="908.0" y="76.0" text-anchor="middle" font-family="monospace" font-size="11" fill="#e74c3c">△</text>
<text x="908.0" y="146.0" text-anchor="middle" font-family="monospace" font-size="9" fill="#888">+17.5°</text>
<line x1="936.0" y1="60.0" x2="936.0" y2="132.0" stroke="#f0b27a" stroke-width="2" />
<rect x="936.0" y="60.0" width="56.0" height="72.0" fill="#cb4335" fill-opacity="0.25" />
<text x="964.0" y="101.0" text-anchor="middle" font-family="monospace" font-size="14" fill="#f0f0f0">8</text>
<text x="964.0" y="76.0" text-anchor="middle" font-family="monospace" font-size="11" fill="#e74c3c">△</text>
<text x="964.0" y="146.0" text-anchor="middle" font-family="monospace" font-size="9" fill="#888">+52.5°</text>
<line x1="992.0" y1="60.0" x2="992.0" y2="132.0" stroke="#cb4335" stroke-width="2" />
<rect x="992.0" y="60.0" width="56.0" height="72.0" fill="#85c1e9" fill-opacity="0.25" />
<text x="1020.0" y="101.0" text-anchor="middle" font-family="monospace" font-size="14" fill="#f0f0f0">4</text>
<text x="1020.0" y="76.0" text-anchor="middle" font-family="monospace" font-size="11" fill="#3498db">▽</text>
<text x="1020.0" y="146.0" text-anchor="middle" font-family="monospace" font-size="9" fill="#888">-17.5°</text>
<line x1="1048.0" y1="60.0" x2="1048.0" y2="132.0" stroke="#85c1e9" stroke-width="2" stroke-dasharray="4,3" />
<rect x="1048.0" y="60.0" width="56.0" height="72.0" fill="#85c1e9" fill-opacity="0.25" />
<text x="1076.0" y="101.0" text-anchor="middle" font-family="monospace" font-size="14" fill="#f0f0f0">4</text>
<text x="1076.0" y="76.0" text-anchor="middle" font-family="monospace" font-size="11" fill="#3498db">▽</text>
<text x="1076.0" y="146.0" text-anchor="middle" font-family="monospace" font-size="9" fill="#888">-17.5°</text>
<line x1="1104.0" y1="60.0" x2="1104.0" y2="132.0" stroke="#85c1e9" stroke-width="2" stroke-dasharray="4,3" />
<rect x="1104.0" y="60.0" width="56.0" height="72.0" fill="#2980b9" fill-opacity="0.25" />
<text x="1132.0" y="101.0" text-anchor="middle" font-family="monospace" font-size="14" fill="#f0f0f0">2</text>
<text x="1132.0" y="76.0" text-anchor="middle" font-family="monospace" font-size="11" fill="#3498db">▽</text>
<text x="1132.0" y="146.0" text-anchor="middle" font-family="monospace" font-size="9" fill="#888">-52.5°</text>
<line x1="1160.0" y1="60.0" x2="1160.0" y2="132.0" stroke="#2980b9" stroke-width="2" stroke-dasharray="4,3" />
<rect x="1160.0" y="60.0" width="56.0" height="72.0" fill="#cb4335" fill-opacity="0.25" />
<text x="1188.0" y="101.0" text-anchor="middle" font-family="monospace" font-size="14" fill="#f0f0f0">8</text>
<text x="1188.0" y="76.0" text-anchor="middle" font-family="monospace" font-size="11" fill="#e74c3c">△</text>
<text x="1188.0" y="146.0" text-anchor="middle" font-family="monospace" font-size="9" fill="#888">+52.5°</text>
<line x1="1216.0" y1="60.0" x2="1216.0" y2="132.0" stroke="#cb4335" stroke-width="2" />
<rect x="1216.0" y="60.0" width="56.0" height="72.0" fill="#922b21" fill-opacity="0.25" />
<text x="1244.0" y="101.0" text-anchor="middle" font-family="monospace" font-size="14" fill="#f0f0f0">9</text>
<text x="1244.0" y="76.0" text-anchor="middle" font-family="monospace" font-size="11" fill="#e74c3c">△</text>
<text x="1244.0" y="146.0" text-anchor="middle" font-family="monospace" font-size="9" fill="#888">+70.0°</text>
<line x1="1272.0" y1="60.0" x2="1272.0" y2="132.0" stroke="#922b21" stroke-width="2" />
<rect x="1272.0" y="60.0" width="56.0" height="72.0" fill="#f0b27a" fill-opacity="0.25" />
<text x="1300.0" y="101.0" text-anchor="middle" font-family="monospace" font-size="14" fill="#f0f0f0">6</text>
<text x="1300.0" y="76.0" text-anchor="middle" font-family="monospace" font-size="11" fill="#e74c3c">△</text>
<text x="1300.0" y="146.0" text-anchor="middle" font-family="monospace" font-size="9" fill="#888">+17.5°</text>
<line x1="1328.0" y1="60.0" x2="1328.0" y2="132.0" stroke="#f0b27a" stroke-width="2" />
<rect x="1328.0" y="60.0" width="56.0" height="72.0" fill="#5dade2" fill-opacity="0.25" />
<text x="1356.0" y="101.0" text-anchor="middle" font-family="monospace" font-size="14" fill="#f0f0f0">3</text>
<text x="1356.0" y="76.0" text-anchor="middle" font-family="monospace" font-size="11" fill="#3498db">▽</text>
<text x="1356.0" y="146.0" text-anchor="middle" font-family="monospace" font-size="9" fill="#888">-35.0°</text>
<line x1="1384.0" y1="60.0" x2="1384.0" y2="132.0" stroke="#5dade2" stroke-width="2" stroke-dasharray="4,3" />
<rect x="1384.0" y="60.0" width="56.0" height="72.0" fill="#1a5276" fill-opacity="0.25" />
<text x="1412.0" y="101.0" text-anchor="middle" font-family="monospace" font-size="14" fill="#f0f0f0">1</text>
<text x="1412.0" y="76.0" text-anchor="middle" font-family="monospace" font-size="11" fill="#3498db">▽</text>
<text x="1412.0" y="146.0" text-anchor="middle" font-family="monospace" font-size="9" fill="#888">-70.0°</text>
<line x1="1440.0" y1="60.0" x2="1440.0" y2="132.0" stroke="#1a5276" stroke-width="2" stroke-dasharray="4,3" />
<rect x="1440.0" y="60.0" width="56.0" height="72.0" fill="#e67e22" fill-opacity="0.25" />
<text x="1468.0" y="101.0" text-anchor="middle" font-family="monospace" font-size="14" fill="#f0f0f0">7</text>
<text x="1468.0" y="76.0" text-anchor="middle" font-family="monospace" font-size="11" fill="#e74c3c">△</text>
<text x="1468.0" y="146.0" text-anchor="middle" font-family="monospace" font-size="9" fill="#888">+35.0°</text>
<line x1="1496.0" y1="60.0" x2="1496.0" y2="132.0" stroke="#e67e22" stroke-width="2" />
<rect x="1496.0" y="60.0" width="56.0" height="72.0" fill="#aab7b8" fill-opacity="0.25" />
<text x="1524.0" y="101.0" text-anchor="middle" font-family="monospace" font-size="14" fill="#f0f0f0">5</text>
<text x="1524.0" y="76.0" text-anchor="middle" font-family="monospace" font-size="11" fill="#aaa">—</text>
<text x="1524.0" y="146.0" text-anchor="middle" font-family="monospace" font-size="9" fill="#888">+0.0°</text>
<line x1="1552.0" y1="60.0" x2="1552.0" y2="132.0" stroke="#aab7b8" stroke-width="2" stroke-dasharray="1,3" />
<rect x="1552.0" y="60.0" width="56.0" height="72.0" fill="#f0b27a" fill-opacity="0.25" />
<text x="1580.0" y="101.0" text-anchor="middle" font-family="monospace" font-size="14" fill="#f0f0f0">6</text>
<text x="1580.0" y="76.0" text-anchor="middle" font-family="monospace" font-size="11" fill="#e74c3c">△</text>
<text x="1580.0" y="146.0" text-anchor="middle" font-family="monospace" font-size="9" fill="#888">+17.5°</text>
<line x1="1608.0" y1="60.0" x2="1608.0" y2="132.0" stroke="#f0b27a" stroke-width="2" />
<rect x="1608.0" y="60.0" width="56.0" height="72.0" fill="#1a5276" fill-opacity="0.25" />
<text x="1636.0" y="101.0" text-anchor="middle" font-family="monospace" font-size="14" fill="#f0f0f0">1</text>
<text x="1636.0" y="76.0" text-anchor="middle" font-family="monospace" font-size="11" fill="#3498db">▽</text>
<text x="1636.0" y="146.0" text-anchor="middle" font-family="monospace" font-size="9" fill="#888">-70.0°</text>
<line x1="1664.0" y1="60.0" x2="1664.0" y2="132.0" stroke="#1a5276" stroke-width="2" stroke-dasharray="4,3" />
<rect x="1664.0" y="60.0" width="56.0" height="72.0" fill="#5dade2" fill-opacity="0.25" />
<text x="1692.0" y="101.0" text-anchor="middle" font-family="monospace" font-size="14" fill="#f0f0f0">3</text>
<text x="1692.0" y="76.0" text-anchor="middle" font-family="monospace" font-size="11" fill="#3498db">▽</text>
<text x="1692.0" y="146.0" text-anchor="middle" font-family="monospace" font-size="9" fill="#888">-35.0°</text>
<line x1="1720.0" y1="60.0" x2="1720.0" y2="132.0" stroke="#5dade2" stroke-width="2" stroke-dasharray="4,3" />
<rect x="1720.0" y="60.0" width="56.0" height="72.0" fill="#e67e22" fill-opacity="0.25" />
<text x="1748.0" y="101.0" text-anchor="middle" font-family="monospace" font-size="14" fill="#f0f0f0">7</text>
<text x="1748.0" y="76.0" text-anchor="middle" font-family="monospace" font-size="11" fill="#e74c3c">△</text>
<text x="1748.0" y="146.0" text-anchor="middle" font-family="monospace" font-size="9" fill="#888">+35.0°</text>
<line x1="1776.0" y1="60.0" x2="1776.0" y2="132.0" stroke="#e67e22" stroke-width="2" />
<rect x="1776.0" y="60.0" width="56.0" height="72.0" fill="#cb4335" fill-opacity="0.25" />
<text x="1804.0" y="101.0" text-anchor="middle" font-family="monospace" font-size="14" fill="#f0f0f0">8</text>
<text x="1804.0" y="76.0" text-anchor="middle" font-family="monospace" font-size="11" fill="#e74c3c">△</text>
<text x="1804.0" y="146.0" text-anchor="middle" font-family="monospace" font-size="9" fill="#888">+52.5°</text>
<line x1="1832.0" y1="60.0" x2="1832.0" y2="132.0" stroke="#cb4335" stroke-width="2" />
<rect x="1832.0" y="60.0" width="56.0" height="72.0" fill="#922b21" fill-opacity="0.25" />
<text x="1860.0" y="101.0" text-anchor="middle" font-family="monospace" font-size="14" fill="#f0f0f0">9</text>
<text x="1860.0" y="76.0" text-anchor="middle" font-family="monospace" font-size="11" fill="#e74c3c">△</text>
<text x="1860.0" y="146.0" text-anchor="middle" font-family="monospace" font-size="9" fill="#888">+70.0°</text>
<line x1="1888.0" y1="60.0" x2="1888.0" y2="132.0" stroke="#922b21" stroke-width="2" />
<rect x="1888.0" y="60.0" width="56.0" height="72.0" fill="#aab7b8" fill-opacity="0.25" />
<text x="1916.0" y="101.0" text-anchor="middle" font-family="monospace" font-size="14" fill="#f0f0f0">5</text>
<text x="1916.0" y="76.0" text-anchor="middle" font-family="monospace" font-size="11" fill="#aaa">—</text>
<text x="1916.0" y="146.0" text-anchor="middle" font-family="monospace" font-size="9" fill="#888">+0.0°</text>
<line x1="1944.0" y1="60.0" x2="1944.0" y2="132.0" stroke="#aab7b8" stroke-width="2" stroke-dasharray="1,3" />
<rect x="1944.0" y="60.0" width="56.0" height="72.0" fill="#85c1e9" fill-opacity="0.25" />
<text x="1972.0" y="101.0" text-anchor="middle" font-family="monospace" font-size="14" fill="#f0f0f0">4</text>
<text x="1972.0" y="76.0" text-anchor="middle" font-family="monospace" font-size="11" fill="#3498db">▽</text>
<text x="1972.0" y="146.0" text-anchor="middle" font-family="monospace" font-size="9" fill="#888">-17.5°</text>
<line x1="2000.0" y1="60.0" x2="2000.0" y2="132.0" stroke="#85c1e9" stroke-width="2" stroke-dasharray="4,3" />
<rect x="2000.0" y="60.0" width="56.0" height="72.0" fill="#2980b9" fill-opacity="0.25" />
<text x="2028.0" y="101.0" text-anchor="middle" font-family="monospace" font-size="14" fill="#f0f0f0">2</text>
<text x="2028.0" y="76.0" text-anchor="middle" font-family="monospace" font-size="11" fill="#3498db">▽</text>
<text x="2028.0" y="146.0" text-anchor="middle" font-family="monospace" font-size="9" fill="#888">-52.5°</text>
<line x1="2056.0" y1="60.0" x2="2056.0" y2="132.0" stroke="#2980b9" stroke-width="2" stroke-dasharray="4,3" />
<rect x="2056.0" y="60.0" width="56.0" height="72.0" fill="#e67e22" fill-opacity="0.25" />
<text x="2084.0" y="101.0" text-anchor="middle" font-family="monospace" font-size="14" fill="#f0f0f0">7</text>
<text x="2084.0" y="76.0" text-anchor="middle" font-family="monospace" font-size="11" fill="#e74c3c">△</text>
<text x="2084.0" y="146.0" text-anchor="middle" font-family="monospace" font-size="9" fill="#888">+35.0°</text>
<line x1="2112.0" y1="60.0" x2="2112.0" y2="132.0" stroke="#e67e22" stroke-width="2" />
<rect x="2112.0" y="60.0" width="56.0" height="72.0" fill="#922b21" fill-opacity="0.25" />
<text x="2140.0" y="101.0" text-anchor="middle" font-family="monospace" font-size="14" fill="#f0f0f0">9</text>
<text x="2140.0" y="76.0" text-anchor="middle" font-family="monospace" font-size="11" fill="#e74c3c">△</text>
<text x="2140.0" y="146.0" text-anchor="middle" font-family="monospace" font-size="9" fill="#888">+70.0°</text>
<line x1="2168.0" y1="60.0" x2="2168.0" y2="132.0" stroke="#922b21" stroke-width="2" />
<rect x="2168.0" y="60.0" width="56.0" height="72.0" fill="#85c1e9" fill-opacity="0.25" />
<text x="2196.0" y="101.0" text-anchor="middle" font-family="monospace" font-size="14" fill="#f0f0f0">4</text>
<text x="2196.0" y="76.0" text-anchor="middle" font-family="monospace" font-size="11" fill="#3498db">▽</text>
<text x="2196.0" y="146.0" text-anchor="middle" font-family="monospace" font-size="9" fill="#888">-17.5°</text>
<line x1="2224.0" y1="60.0" x2="2224.0" y2="132.0" stroke="#85c1e9" stroke-width="2" stroke-dasharray="4,3" />
<rect x="2224.0" y="60.0" width="56.0" height="72.0" fill="#f0b27a" fill-opacity="0.25" />
<text x="2252.0" y="101.0" text-anchor="middle" font-family="monospace" font-size="14" fill="#f0f0f0">6</text>
<text x="2252.0" y="76.0" text-anchor="middle" font-family="monospace" font-size="11" fill="#e74c3c">△</text>
<text x="2252.0" y="146.0" text-anchor="middle" font-family="monospace" font-size="9" fill="#888">+17.5°</text>
<line x1="2280.0" y1="60.0" x2="2280.0" y2="132.0" stroke="#f0b27a" stroke-width="2" />
<rect x="2280.0" y="60.0" width="56.0" height="72.0" fill="#aab7b8" fill-opacity="0.25" />
<text x="2308.0" y="101.0" text-anchor="middle" font-family="monospace" font-size="14" fill="#f0f0f0">5</text>
<text x="2308.0" y="76.0" text-anchor="middle" font-family="monospace" font-size="11" fill="#aaa">—</text>
<text x="2308.0" y="146.0" text-anchor="middle" font-family="monospace" font-size="9" fill="#888">+0.0°</text>
<line x1="2336.0" y1="60.0" x2="2336.0" y2="132.0" stroke="#aab7b8" stroke-width="2" stroke-dasharray="1,3" />
<rect x="2336.0" y="60.0" width="56.0" height="72.0" fill="#2980b9" fill-opacity="0.25" />
<text x="2364.0" y="101.0" text-anchor="middle" font-family="monospace" font-size="14" fill="#f0f0f0">2</text>
<text x="2364.0" y="76.0" text-anchor="middle" font-family="monospace" font-size="11" fill="#3498db">▽</text>
<text x="2364.0" y="146.0" text-anchor="middle" font-family="monospace" font-size="9" fill="#888">-52.5°</text>
<line x1="2392.0" y1="60.0" x2="2392.0" y2="132.0" stroke="#2980b9" stroke-width="2" stroke-dasharray="4,3" />
<rect x="2392.0" y="60.0" width="56.0" height="72.0" fill="#5dade2" fill-opacity="0.25" />
<text x="2420.0" y="101.0" text-anchor="middle" font-family="monospace" font-size="14" fill="#f0f0f0">3</text>
<text x="2420.0" y="76.0" text-anchor="middle" font-family="monospace" font-size="11" fill="#3498db">▽</text>
<text x="2420.0" y="146.0" text-anchor="middle" font-family="monospace" font-size="9" fill="#888">-35.0°</text>
<line x1="2448.0" y1="60.0" x2="2448.0" y2="132.0" stroke="#5dade2" stroke-width="2" stroke-dasharray="4,3" />
<rect x="2448.0" y="60.0" width="56.0" height="72.0" fill="#1a5276" fill-opacity="0.25" />
<text x="2476.0" y="101.0" text-anchor="middle" font-family="monospace" font-size="14" fill="#f0f0f0">1</text>
<text x="2476.0" y="76.0" text-anchor="middle" font-family="monospace" font-size="11" fill="#3498db">▽</text>
<text x="2476.0" y="146.0" text-anchor="middle" font-family="monospace" font-size="9" fill="#888">-70.0°</text>
<line x1="2504.0" y1="60.0" x2="2504.0" y2="132.0" stroke="#1a5276" stroke-width="2" stroke-dasharray="4,3" />
<rect x="2504.0" y="60.0" width="56.0" height="72.0" fill="#cb4335" fill-opacity="0.25" />
<text x="2532.0" y="101.0" text-anchor="middle" font-family="monospace" font-size="14" fill="#f0f0f0">8</text>
<text x="2532.0" y="76.0" text-anchor="middle" font-family="monospace" font-size="11" fill="#e74c3c">△</text>
<text x="2532.0" y="146.0" text-anchor="middle" font-family="monospace" font-size="9" fill="#888">+52.5°</text>
<line x1="2560.0" y1="60.0" x2="2560.0" y2="132.0" stroke="#cb4335" stroke-width="2" />
<rect x="2560.0" y="60.0" width="56.0" height="72.0" fill="#cb4335" fill-opacity="0.25" />
<text x="2588.0" y="101.0" text-anchor="middle" font-family="monospace" font-size="14" fill="#f0f0f0">8</text>
<text x="2588.0" y="76.0" text-anchor="middle" font-family="monospace" font-size="11" fill="#e74c3c">△</text>
<text x="2588.0" y="146.0" text-anchor="middle" font-family="monospace" font-size="9" fill="#888">+52.5°</text>
<line x1="2616.0" y1="60.0" x2="2616.0" y2="132.0" stroke="#cb4335" stroke-width="2" />
<rect x="2616.0" y="60.0" width="56.0" height="72.0" fill="#aab7b8" fill-opacity="0.25" />
<text x="2644.0" y="101.0" text-anchor="middle" font-family="monospace" font-size="14" fill="#f0f0f0">5</text>
<text x="2644.0" y="76.0" text-anchor="middle" font-family="monospace" font-size="11" fill="#aaa">—</text>
<text x="2644.0" y="146.0" text-anchor="middle" font-family="monospace" font-size="9" fill="#888">+0.0°</text>
<line x1="2672.0" y1="60.0" x2="2672.0" y2="132.0" stroke="#aab7b8" stroke-width="2" stroke-dasharray="1,3" />
<rect x="2672.0" y="60.0" width="56.0" height="72.0" fill="#2980b9" fill-opacity="0.25" />
<text x="2700.0" y="101.0" text-anchor="middle" font-family="monospace" font-size="14" fill="#f0f0f0">2</text>
<text x="2700.0" y="76.0" text-anchor="middle" font-family="monospace" font-size="11" fill="#3498db">▽</text>
<text x="2700.0" y="146.0" text-anchor="middle" font-family="monospace" font-size="9" fill="#888">-52.5°</text>
<line x1="2728.0" y1="60.0" x2="2728.0" y2="132.0" stroke="#2980b9" stroke-width="2" stroke-dasharray="4,3" />
<rect x="2728.0" y="60.0" width="56.0" height="72.0" fill="#1a5276" fill-opacity="0.25" />
<text x="2756.0" y="101.0" text-anchor="middle" font-family="monospace" font-size="14" fill="#f0f0f0">1</text>
<text x="2756.0" y="76.0" text-anchor="middle" font-family="monospace" font-size="11" fill="#3498db">▽</text>
<text x="2756.0" y="146.0" text-anchor="middle" font-family="monospace" font-size="9" fill="#888">-70.0°</text>
<line x1="2784.0" y1="60.0" x2="2784.0" y2="132.0" stroke="#1a5276" stroke-width="2" stroke-dasharray="4,3" />
<rect x="2784.0" y="60.0" width="56.0" height="72.0" fill="#5dade2" fill-opacity="0.25" />
<text x="2812.0" y="101.0" text-anchor="middle" font-family="monospace" font-size="14" fill="#f0f0f0">3</text>
<text x="2812.0" y="76.0" text-anchor="middle" font-family="monospace" font-size="11" fill="#3498db">▽</text>
<text x="2812.0" y="146.0" text-anchor="middle" font-family="monospace" font-size="9" fill="#888">-35.0°</text>
<line x1="2840.0" y1="60.0" x2="2840.0" y2="132.0" stroke="#5dade2" stroke-width="2" stroke-dasharray="4,3" />
<rect x="2840.0" y="60.0" width="56.0" height="72.0" fill="#85c1e9" fill-opacity="0.25" />
<text x="2868.0" y="101.0" text-anchor="middle" font-family="monospace" font-size="14" fill="#f0f0f0">4</text>
<text x="2868.0" y="76.0" text-anchor="middle" font-family="monospace" font-size="11" fill="#3498db">▽</text>
<text x="2868.0" y="146.0" text-anchor="middle" font-family="monospace" font-size="9" fill="#888">-17.5°</text>
<line x1="2896.0" y1="60.0" x2="2896.0" y2="132.0" stroke="#85c1e9" stroke-width="2" stroke-dasharray="4,3" />
<rect x="2896.0" y="60.0" width="56.0" height="72.0" fill="#e67e22" fill-opacity="0.25" />
<text x="2924.0" y="101.0" text-anchor="middle" font-family="monospace" font-size="14" fill="#f0f0f0">7</text>
<text x="2924.0" y="76.0" text-anchor="middle" font-family="monospace" font-size="11" fill="#e74c3c">△</text>
<text x="2924.0" y="146.0" text-anchor="middle" font-family="monospace" font-size="9" fill="#888">+35.0°</text>
<line x1="2952.0" y1="60.0" x2="2952.0" y2="132.0" stroke="#e67e22" stroke-width="2" />
<rect x="2952.0" y="60.0" width="56.0" height="72.0" fill="#922b21" fill-opacity="0.25" />
<text x="2980.0" y="101.0" text-anchor="middle" font-family="monospace" font-size="14" fill="#f0f0f0">9</text>
<text x="2980.0" y="76.0" text-anchor="middle" font-family="monospace" font-size="11" fill="#e74c3c">△</text>
<text x="2980.0" y="146.0" text-anchor="middle" font-family="monospace" font-size="9" fill="#888">+70.0°</text>
<line x1="3008.0" y1="60.0" x2="3008.0" y2="132.0" stroke="#922b21" stroke-width="2" />
<rect x="3008.0" y="60.0" width="56.0" height="72.0" fill="#f0b27a" fill-opacity="0.25" />
<text x="3036.0" y="101.0" text-anchor="middle" font-family="monospace" font-size="14" fill="#f0f0f0">6</text>
<text x="3036.0" y="76.0" text-anchor="middle" font-family="monospace" font-size="11" fill="#e74c3c">△</text>
<text x="3036.0" y="146.0" text-anchor="middle" font-family="monospace" font-size="9" fill="#888">+17.5°</text>
<line x1="3064.0" y1="60.0" x2="3064.0" y2="132.0" stroke="#f0b27a" stroke-width="2" />
<rect x="3064.0" y="60.0" width="56.0" height="72.0" fill="#922b21" fill-opacity="0.25" />
<text x="3092.0" y="101.0" text-anchor="middle" font-family="monospace" font-size="14" fill="#f0f0f0">9</text>
<text x="3092.0" y="76.0" text-anchor="middle" font-family="monospace" font-size="11" fill="#e74c3c">△</text>
<text x="3092.0" y="146.0" text-anchor="middle" font-family="monospace" font-size="9" fill="#888">+70.0°</text>
<line x1="3120.0" y1="60.0" x2="3120.0" y2="132.0" stroke="#922b21" stroke-width="2" />
<rect x="3120.0" y="60.0" width="56.0" height="72.0" fill="#5dade2" fill-opacity="0.25" />
<text x="3148.0" y="101.0" text-anchor="middle" font-family="monospace" font-size="14" fill="#f0f0f0">3</text>
<text x="3148.0" y="76.0" text-anchor="middle" font-family="monospace" font-size="11" fill="#3498db">▽</text>
<text x="3148.0" y="146.0" text-anchor="middle" font-family="monospace" font-size="9" fill="#888">-35.0°</text>
<line x1="3176.0" y1="60.0" x2="3176.0" y2="132.0" stroke="#5dade2" stroke-width="2" stroke-dasharray="4,3" />
<rect x="3176.0" y="60.0" width="56.0" height="72.0" fill="#aab7b8" fill-opacity="0.25" />
<text x="3204.0" y="101.0" text-anchor="middle" font-family="monospace" font-size="14" fill="#f0f0f0">5</text>
<text x="3204.0" y="76.0" text-anchor="middle" font-family="monospace" font-size="11" fill="#aaa">—</text>
<text x="3204.0" y="146.0" text-anchor="middle" font-family="monospace" font-size="9" fill="#888">+0.0°</text>
<line x1="3232.0" y1="60.0" x2="3232.0" y2="132.0" stroke="#aab7b8" stroke-width="2" stroke-dasharray="1,3" />
<rect x="3232.0" y="60.0" width="56.0" height="72.0" fill="#85c1e9" fill-opacity="0.25" />
<text x="3260.0" y="101.0" text-anchor="middle" font-family="monospace" font-size="14" fill="#f0f0f0">4</text>
<text x="3260.0" y="76.0" text-anchor="middle" font-family="monospace" font-size="11" fill="#3498db">▽</text>
<text x="3260.0" y="146.0" text-anchor="middle" font-family="monospace" font-size="9" fill="#888">-17.5°</text>
<line x1="3288.0" y1="60.0" x2="3288.0" y2="132.0" stroke="#85c1e9" stroke-width="2" stroke-dasharray="4,3" />
<rect x="3288.0" y="60.0" width="56.0" height="72.0" fill="#e67e22" fill-opacity="0.25" />
<text x="3316.0" y="101.0" text-anchor="middle" font-family="monospace" font-size="14" fill="#f0f0f0">7</text>
<text x="3316.0" y="76.0" text-anchor="middle" font-family="monospace" font-size="11" fill="#e74c3c">△</text>
<text x="3316.0" y="146.0" text-anchor="middle" font-family="monospace" font-size="9" fill="#888">+35.0°</text>
<line x1="3344.0" y1="60.0" x2="3344.0" y2="132.0" stroke="#e67e22" stroke-width="2" />
<rect x="3344.0" y="60.0" width="56.0" height="72.0" fill="#cb4335" fill-opacity="0.25" />
<text x="3372.0" y="101.0" text-anchor="middle" font-family="monospace" font-size="14" fill="#f0f0f0">8</text>
<text x="3372.0" y="76.0" text-anchor="middle" font-family="monospace" font-size="11" fill="#e74c3c">△</text>
<text x="3372.0" y="146.0" text-anchor="middle" font-family="monospace" font-size="9" fill="#888">+52.5°</text>
<line x1="3400.0" y1="60.0" x2="3400.0" y2="132.0" stroke="#cb4335" stroke-width="2" />
<rect x="3400.0" y="60.0" width="56.0" height="72.0" fill="#2980b9" fill-opacity="0.25" />
<text x="3428.0" y="101.0" text-anchor="middle" font-family="monospace" font-size="14" fill="#f0f0f0">2</text>
<text x="3428.0" y="76.0" text-anchor="middle" font-family="monospace" font-size="11" fill="#3498db">▽</text>
<text x="3428.0" y="146.0" text-anchor="middle" font-family="monospace" font-size="9" fill="#888">-52.5°</text>
<line x1="3456.0" y1="60.0" x2="3456.0" y2="132.0" stroke="#2980b9" stroke-width="2" stroke-dasharray="4,3" />
<rect x="3456.0" y="60.0" width="56.0" height="72.0" fill="#f0b27a" fill-opacity="0.25" />
<text x="3484.0" y="101.0" text-anchor="middle" font-family="monospace" font-size="14" fill="#f0f0f0">6</text>
<text x="3484.0" y="76.0" text-anchor="middle" font-family="monospace" font-size="11" fill="#e74c3c">△</text>
<text x="3484.0" y="146.0" text-anchor="middle" font-family="monospace" font-size="9" fill="#888">+17.5°</text>
<line x1="3512.0" y1="60.0" x2="3512.0" y2="132.0" stroke="#f0b27a" stroke-width="2" />
<rect x="3512.0" y="60.0" width="56.0" height="72.0" fill="#1a5276" fill-opacity="0.25" />
<text x="3540.0" y="101.0" text-anchor="middle" font-family="monospace" font-size="14" fill="#f0f0f0">1</text>
<text x="3540.0" y="76.0" text-anchor="middle" font-family="monospace" font-size="11" fill="#3498db">▽</text>
<text x="3540.0" y="146.0" text-anchor="middle" font-family="monospace" font-size="9" fill="#888">-70.0°</text>
<line x1="3568.0" y1="60.0" x2="3568.0" y2="132.0" stroke="#1a5276" stroke-width="2" stroke-dasharray="4,3" />
<rect x="3568.0" y="60.0" width="56.0" height="72.0" fill="#1a5276" fill-opacity="0.25" />
<text x="3596.0" y="101.0" text-anchor="middle" font-family="monospace" font-size="14" fill="#f0f0f0">1</text>
<text x="3596.0" y="76.0" text-anchor="middle" font-family="monospace" font-size="11" fill="#3498db">▽</text>
<text x="3596.0" y="146.0" text-anchor="middle" font-family="monospace" font-size="9" fill="#888">-70.0°</text>
<line x1="3624.0" y1="60.0" x2="3624.0" y2="132.0" stroke="#1a5276" stroke-width="2" stroke-dasharray="4,3" />
<rect x="3624.0" y="60.0" width="56.0" height="72.0" fill="#85c1e9" fill-opacity="0.25" />
<text x="3652.0" y="101.0" text-anchor="middle" font-family="monospace" font-size="14" fill="#f0f0f0">4</text>
<text x="3652.0" y="76.0" text-anchor="middle" font-family="monospace" font-size="11" fill="#3498db">▽</text>
<text x="3652.0" y="146.0" text-anchor="middle" font-family="monospace" font-size="9" fill="#888">-17.5°</text>
<line x1="3680.0" y1="60.0" x2="3680.0" y2="132.0" stroke="#85c1e9" stroke-width="2" stroke-dasharray="4,3" />
<rect x="3680.0" y="60.0" width="56.0" height="72.0" fill="#f0b27a" fill-opacity="0.25" />
<text x="3708.0" y="101.0" text-anchor="middle" font-family="monospace" font-size="14" fill="#f0f0f0">6</text>
<text x="3708.0" y="76.0" text-anchor="middle" font-family="monospace" font-size="11" fill="#e74c3c">△</text>
<text x="3708.0" y="146.0" text-anchor="middle" font-family="monospace" font-size="9" fill="#888">+17.5°</text>
<line x1="3736.0" y1="60.0" x2="3736.0" y2="132.0" stroke="#f0b27a" stroke-width="2" />
<rect x="3736.0" y="60.0" width="56.0" height="72.0" fill="#2980b9" fill-opacity="0.25" />
<text x="3764.0" y="101.0" text-anchor="middle" font-family="monospace" font-size="14" fill="#f0f0f0">2</text>
<text x="3764.0" y="76.0" text-anchor="middle" font-family="monospace" font-size="11" fill="#3498db">▽</text>
<text x="3764.0" y="146.0" text-anchor="middle" font-family="monospace" font-size="9" fill="#888">-52.5°</text>
<line x1="3792.0" y1="60.0" x2="3792.0" y2="132.0" stroke="#2980b9" stroke-width="2" stroke-dasharray="4,3" />
<rect x="3792.0" y="60.0" width="56.0" height="72.0" fill="#922b21" fill-opacity="0.25" />
<text x="3820.0" y="101.0" text-anchor="middle" font-family="monospace" font-size="14" fill="#f0f0f0">9</text>
<text x="3820.0" y="76.0" text-anchor="middle" font-family="monospace" font-size="11" fill="#e74c3c">△</text>
<text x="3820.0" y="146.0" text-anchor="middle" font-family="monospace" font-size="9" fill="#888">+70.0°</text>
<line x1="3848.0" y1="60.0" x2="3848.0" y2="132.0" stroke="#922b21" stroke-width="2" />
<rect x="3848.0" y="60.0" width="56.0" height="72.0" fill="#aab7b8" fill-opacity="0.25" />
<text x="3876.0" y="101.0" text-anchor="middle" font-family="monospace" font-size="14" fill="#f0f0f0">5</text>
<text x="3876.0" y="76.0" text-anchor="middle" font-family="monospace" font-size="11" fill="#aaa">—</text>
<text x="3876.0" y="146.0" text-anchor="middle" font-family="monospace" font-size="9" fill="#888">+0.0°</text>
<line x1="3904.0" y1="60.0" x2="3904.0" y2="132.0" stroke="#aab7b8" stroke-width="2" stroke-dasharray="1,3" />
<rect x="3904.0" y="60.0" width="56.0" height="72.0" fill="#cb4335" fill-opacity="0.25" />
<text x="3932.0" y="101.0" text-anchor="middle" font-family="monospace" font-size="14" fill="#f0f0f0">8</text>
<text x="3932.0" y="76.0" text-anchor="middle" font-family="monospace" font-size="11" fill="#e74c3c">△</text>
<text x="3932.0" y="146.0" text-anchor="middle" font-family="monospace" font-size="9" fill="#888">+52.5°</text>
<line x1="3960.0" y1="60.0" x2="3960.0" y2="132.0" stroke="#cb4335" stroke-width="2" />
<rect x="3960.0" y="60.0" width="56.0" height="72.0" fill="#5dade2" fill-opacity="0.25" />
<text x="3988.0" y="101.0" text-anchor="middle" font-family="monospace" font-size="14" fill="#f0f0f0">3</text>
<text x="3988.0" y="76.0" text-anchor="middle" font-family="monospace" font-size="11" fill="#3498db">▽</text>
<text x="3988.0" y="146.0" text-anchor="middle" font-family="monospace" font-size="9" fill="#888">-35.0°</text>
<line x1="4016.0" y1="60.0" x2="4016.0" y2="132.0" stroke="#5dade2" stroke-width="2" stroke-dasharray="4,3" />
<rect x="4016.0" y="60.0" width="56.0" height="72.0" fill="#e67e22" fill-opacity="0.25" />
<text x="4044.0" y="101.0" text-anchor="middle" font-family="monospace" font-size="14" fill="#f0f0f0">7</text>
<text x="4044.0" y="76.0" text-anchor="middle" font-family="monospace" font-size="11" fill="#e74c3c">△</text>
<text x="4044.0" y="146.0" text-anchor="middle" font-family="monospace" font-size="9" fill="#888">+35.0°</text>
<line x1="4072.0" y1="60.0" x2="4072.0" y2="132.0" stroke="#e67e22" stroke-width="2" />
<rect x="4072.0" y="60.0" width="56.0" height="72.0" fill="#2980b9" fill-opacity="0.25" />
<text x="4100.0" y="101.0" text-anchor="middle" font-family="monospace" font-size="14" fill="#f0f0f0">2</text>
<text x="4100.0" y="76.0" text-anchor="middle" font-family="monospace" font-size="11" fill="#3498db">▽</text>
<text x="4100.0" y="146.0" text-anchor="middle" font-family="monospace" font-size="9" fill="#888">-52.5°</text>
<line x1="4128.0" y1="60.0" x2="4128.0" y2="132.0" stroke="#2980b9" stroke-width="2" stroke-dasharray="4,3" />
<rect x="4128.0" y="60.0" width="56.0" height="72.0" fill="#cb4335" fill-opacity="0.25" />
<text x="4156.0" y="101.0" text-anchor="middle" font-family="monospace" font-size="14" fill="#f0f0f0">8</text>
<text x="4156.0" y="76.0" text-anchor="middle" font-family="monospace" font-size="11" fill="#e74c3c">△</text>
<text x="4156.0" y="146.0" text-anchor="middle" font-family="monospace" font-size="9" fill="#888">+52.5°</text>
<line x1="4184.0" y1="60.0" x2="4184.0" y2="132.0" stroke="#cb4335" stroke-width="2" />
<rect x="4184.0" y="60.0" width="56.0" height="72.0" fill="#e67e22" fill-opacity="0.25" />
<text x="4212.0" y="101.0" text-anchor="middle" font-family="monospace" font-size="14" fill="#f0f0f0">7</text>
<text x="4212.0" y="76.0" text-anchor="middle" font-family="monospace" font-size="11" fill="#e74c3c">△</text>
<text x="4212.0" y="146.0" text-anchor="middle" font-family="monospace" font-size="9" fill="#888">+35.0°</text>
<line x1="4240.0" y1="60.0" x2="4240.0" y2="132.0" stroke="#e67e22" stroke-width="2" />
<rect x="4240.0" y="60.0" width="56.0" height="72.0" fill="#5dade2" fill-opacity="0.25" />
<text x="4268.0" y="101.0" text-anchor="middle" font-family="monospace" font-size="14" fill="#f0f0f0">3</text>
<text x="4268.0" y="76.0" text-anchor="middle" font-family="monospace" font-size="11" fill="#3498db">▽</text>
<text x="4268.0" y="146.0" text-anchor="middle" font-family="monospace" font-size="9" fill="#888">-35.0°</text>
<line x1="4296.0" y1="60.0" x2="4296.0" y2="132.0" stroke="#5dade2" stroke-width="2" stroke-dasharray="4,3" />
<rect x="4296.0" y="60.0" width="56.0" height="72.0" fill="#1a5276" fill-opacity="0.25" />
<text x="4324.0" y="101.0" text-anchor="middle" font-family="monospace" font-size="14" fill="#f0f0f0">1</text>
<text x="4324.0" y="76.0" text-anchor="middle" font-family="monospace" font-size="11" fill="#3498db">▽</text>
<text x="4324.0" y="146.0" text-anchor="middle" font-family="monospace" font-size="9" fill="#888">-70.0°</text>
<line x1="4352.0" y1="60.0" x2="4352.0" y2="132.0" stroke="#1a5276" stroke-width="2" stroke-dasharray="4,3" />
<rect x="4352.0" y="60.0" width="56.0" height="72.0" fill="#f0b27a" fill-opacity="0.25" />
<text x="4380.0" y="101.0" text-anchor="middle" font-family="monospace" font-size="14" fill="#f0f0f0">6</text>
<text x="4380.0" y="76.0" text-anchor="middle" font-family="monospace" font-size="11" fill="#e74c3c">△</text>
<text x="4380.0" y="146.0" text-anchor="middle" font-family="monospace" font-size="9" fill="#888">+17.5°</text>
<line x1="4408.0" y1="60.0" x2="4408.0" y2="132.0" stroke="#f0b27a" stroke-width="2" />
<rect x="4408.0" y="60.0" width="56.0" height="72.0" fill="#85c1e9" fill-opacity="0.25" />
<text x="4436.0" y="101.0" text-anchor="middle" font-family="monospace" font-size="14" fill="#f0f0f0">4</text>
<text x="4436.0" y="76.0" text-anchor="middle" font-family="monospace" font-size="11" fill="#3498db">▽</text>
<text x="4436.0" y="146.0" text-anchor="middle" font-family="monospace" font-size="9" fill="#888">-17.5°</text>
<line x1="4464.0" y1="60.0" x2="4464.0" y2="132.0" stroke="#85c1e9" stroke-width="2" stroke-dasharray="4,3" />
<rect x="4464.0" y="60.0" width="56.0" height="72.0" fill="#aab7b8" fill-opacity="0.25" />
<text x="4492.0" y="101.0" text-anchor="middle" font-family="monospace" font-size="14" fill="#f0f0f0">5</text>
<text x="4492.0" y="76.0" text-anchor="middle" font-family="monospace" font-size="11" fill="#aaa">—</text>
<text x="4492.0" y="146.0" text-anchor="middle" font-family="monospace" font-size="9" fill="#888">+0.0°</text>
<line x1="4520.0" y1="60.0" x2="4520.0" y2="132.0" stroke="#aab7b8" stroke-width="2" stroke-dasharray="1,3" />
<rect x="4520.0" y="60.0" width="56.0" height="72.0" fill="#922b21" fill-opacity="0.25" />
<text x="4548.0" y="101.0" text-anchor="middle" font-family="monospace" font-size="14" fill="#f0f0f0">9</text>
<text x="4548.0" y="76.0" text-anchor="middle" font-family="monospace" font-size="11" fill="#e74c3c">△</text>
<text x="4548.0" y="146.0" text-anchor="middle" font-family="monospace" font-size="9" fill="#888">+70.0°</text>
<text x="40.0" y="168.0" font-family="monospace" font-size="12" fill="#ccc">Legend:</text>
<rect x="40.0" y="174.0" width="16.0" height="16.0" fill="#1a5276" rx="2" />
<text x="60.0" y="186.0" font-family="monospace" font-size="10" fill="#bbb">1=-70.0° V</text>
<rect x="122.0" y="174.0" width="16.0" height="16.0" fill="#2980b9" rx="2" />
<text x="142.0" y="186.0" font-family="monospace" font-size="10" fill="#bbb">2=-52.5° V</text>
<rect x="204.0" y="174.0" width="16.0" height="16.0" fill="#5dade2" rx="2" />
<text x="224.0" y="186.0" font-family="monospace" font-size="10" fill="#bbb">3=-35.0° V</text>
<rect x="286.0" y="174.0" width="16.0" height="16.0" fill="#85c1e9" rx="2" />
<text x="306.0" y="186.0" font-family="monospace" font-size="10" fill="#bbb">4=-17.5° V</text>
<rect x="368.0" y="174.0" width="16.0" height="16.0" fill="#aab7b8" rx="2" />
<text x="388.0" y="186.0" font-family="monospace" font-size="10" fill="#bbb">5=+0.0° F</text>
<rect x="450.0" y="174.0" width="16.0" height="16.0" fill="#f0b27a" rx="2" />
<text x="470.0" y="186.0" font-family="monospace" font-size="10" fill="#bbb">6=+17.5° M</text>
<rect x="532.0" y="174.0" width="16.0" height="16.0" fill="#e67e22" rx="2" />
<text x="552.0" y="186.0" font-family="monospace" font-size="10" fill="#bbb">7=+35.0° M</text>
<rect x="614.0" y="174.0" width="16.0" height="16.0" fill="#cb4335" rx="2" />
<text x="634.0" y="186.0" font-family="monospace" font-size="10" fill="#bbb">8=+52.5° M</text>
<rect x="696.0" y="174.0" width="16.0" height="16.0" fill="#922b21" rx="2" />
<text x="716.0" y="186.0" font-family="monospace" font-size="10" fill="#bbb">9=+70.0° M</text>
<text x="40.0" y="208.0" font-family="monospace" font-size="10" fill="#888">△ Mountain (solid)  ▽ Valley (dashed)  — Flat (dotted)</text>
</svg>